<?xml version="1.0" encoding="UTF-8"?>
<svg version="1.1" xmlns="http://www.w3.org/2000/svg" width="1500" height="1500">
<path d="M0 0 C495 0 990 0 1500 0 C1500 495 1500 990 1500 1500 C1005 1500 510 1500 0 1500 C0 1005 0 510 0 0 Z " fill="#5FCDE4" transform="translate(0,0)"/>
<path d="M0 0 C267.3 0 534.6 0 810 0 C810 105.6 810 211.2 810 320 C542.7 320 275.4 320 0 320 C0 214.4 0 108.8 0 0 Z " fill="#864F38" transform="translate(340,570)"/>
<path d="M0 0 C6.6 0 13.2 0 20 0 C20 6.6 20 13.2 20 20 C26.6 20 33.2 20 40 20 C40 13.4 40 6.8 40 0 C53.2 0 66.4 0 80 0 C80 6.6 80 13.2 80 20 C86.6 20 93.2 20 100 20 C100 39.8 100 59.6 100 80 C93.4 80 86.8 80 80 80 C80 86.6 80 93.2 80 100 C73.4 100 66.8 100 60 100 C60 106.6 60 113.2 60 120 C66.6 120 73.2 120 80 120 C80 133.2 80 146.4 80 160 C86.6 160 93.2 160 100 160 C100 153.4 100 146.8 100 140 C106.6 140 113.2 140 120 140 C120 153.2 120 166.4 120 180 C113.4 180 106.8 180 100 180 C100 186.6 100 193.2 100 200 C86.8 200 73.6 200 60 200 C60 193.4 60 186.8 60 180 C53.4 180 46.8 180 40 180 C40 160.2 40 140.4 40 120 C33.4 120 26.8 120 20 120 C20 139.8 20 159.6 20 180 C13.4 180 6.8 180 0 180 C0 186.6 0 193.2 0 200 C-6.6 200 -13.2 200 -20 200 C-20 147.2 -20 94.4 -20 40 C-26.6 40 -33.2 40 -40 40 C-40 33.4 -40 26.8 -40 20 C-26.8 20 -13.6 20 0 20 C0 13.4 0 6.8 0 0 Z " fill="#000000" transform="translate(480,240)"/>
<path d="M0 0 C19.8 0 39.6 0 60 0 C60 66 60 132 60 200 C53.4 200 46.8 200 40 200 C40 206.6 40 213.2 40 220 C33.4 220 26.8 220 20 220 C20 187 20 154 20 120 C6.8 120 -6.4 120 -20 120 C-20 139.8 -20 159.6 -20 180 C-26.6 180 -33.2 180 -40 180 C-40 186.6 -40 193.2 -40 200 C-53.2 200 -66.4 200 -80 200 C-80 193.4 -80 186.8 -80 180 C-73.4 180 -66.8 180 -60 180 C-60 153.6 -60 127.2 -60 100 C-53.4 100 -46.8 100 -40 100 C-40 86.8 -40 73.6 -40 60 C-33.4 60 -26.8 60 -20 60 C-20 53.4 -20 46.8 -20 40 C-26.6 40 -33.2 40 -40 40 C-40 33.4 -40 26.8 -40 20 C-26.8 20 -13.6 20 0 20 C0 13.4 0 6.8 0 0 Z " fill="#000000" transform="translate(630,980)"/>
<path d="M0 0 C19.8 0 39.6 0 60 0 C60 66 60 132 60 200 C53.4 200 46.8 200 40 200 C40 206.6 40 213.2 40 220 C33.4 220 26.8 220 20 220 C20 187 20 154 20 120 C6.8 120 -6.4 120 -20 120 C-20 139.8 -20 159.6 -20 180 C-26.6 180 -33.2 180 -40 180 C-40 186.6 -40 193.2 -40 200 C-53.2 200 -66.4 200 -80 200 C-80 193.4 -80 186.8 -80 180 C-73.4 180 -66.8 180 -60 180 C-60 153.6 -60 127.2 -60 100 C-53.4 100 -46.8 100 -40 100 C-40 86.8 -40 73.6 -40 60 C-33.4 60 -26.8 60 -20 60 C-20 53.4 -20 46.8 -20 40 C-26.6 40 -33.2 40 -40 40 C-40 33.4 -40 26.8 -40 20 C-26.8 20 -13.6 20 0 20 C0 13.4 0 6.8 0 0 Z " fill="#000000" transform="translate(780,240)"/>
<path d="M0 0 C6.6 0 13.2 0 20 0 C20 13.2 20 26.4 20 40 C26.6 40 33.2 40 40 40 C40 33.4 40 26.8 40 20 C46.6 20 53.2 20 60 20 C60 13.4 60 6.8 60 0 C73.2 0 86.4 0 100 0 C100 66 100 132 100 200 C93.4 200 86.8 200 80 200 C80 206.6 80 213.2 80 220 C73.4 220 66.8 220 60 220 C60 167.2 60 114.4 60 60 C53.4 60 46.8 60 40 60 C40 66.6 40 73.2 40 80 C33.4 80 26.8 80 20 80 C20 113 20 146 20 180 C13.4 180 6.8 180 0 180 C0 186.6 0 193.2 0 200 C-6.6 200 -13.2 200 -20 200 C-20 147.2 -20 94.4 -20 40 C-26.6 40 -33.2 40 -40 40 C-40 33.4 -40 26.8 -40 20 C-26.8 20 -13.6 20 0 20 C0 13.4 0 6.8 0 0 Z " fill="#000000" transform="translate(1330,980)"/>
<path d="M0 0 C6.6 0 13.2 0 20 0 C20 13.2 20 26.4 20 40 C26.6 40 33.2 40 40 40 C40 33.4 40 26.8 40 20 C46.6 20 53.2 20 60 20 C60 13.4 60 6.8 60 0 C73.2 0 86.4 0 100 0 C100 66 100 132 100 200 C93.4 200 86.8 200 80 200 C80 206.6 80 213.2 80 220 C73.4 220 66.8 220 60 220 C60 167.2 60 114.4 60 60 C53.4 60 46.8 60 40 60 C40 66.6 40 73.2 40 80 C33.4 80 26.8 80 20 80 C20 113 20 146 20 180 C13.4 180 6.8 180 0 180 C0 186.6 0 193.2 0 200 C-6.6 200 -13.2 200 -20 200 C-20 147.2 -20 94.4 -20 40 C-26.6 40 -33.2 40 -40 40 C-40 33.4 -40 26.8 -40 20 C-26.8 20 -13.6 20 0 20 C0 13.4 0 6.8 0 0 Z " fill="#000000" transform="translate(750,980)"/>
<path d="M0 0 C6.6 0 13.2 0 20 0 C20 13.2 20 26.4 20 40 C26.6 40 33.2 40 40 40 C40 33.4 40 26.8 40 20 C46.6 20 53.2 20 60 20 C60 13.4 60 6.8 60 0 C73.2 0 86.4 0 100 0 C100 66 100 132 100 200 C93.4 200 86.8 200 80 200 C80 206.6 80 213.2 80 220 C73.4 220 66.8 220 60 220 C60 167.2 60 114.4 60 60 C53.4 60 46.8 60 40 60 C40 66.6 40 73.2 40 80 C33.4 80 26.8 80 20 80 C20 113 20 146 20 180 C13.4 180 6.8 180 0 180 C0 186.6 0 193.2 0 200 C-6.6 200 -13.2 200 -20 200 C-20 147.2 -20 94.4 -20 40 C-26.6 40 -33.2 40 -40 40 C-40 33.4 -40 26.8 -40 20 C-26.8 20 -13.6 20 0 20 C0 13.4 0 6.8 0 0 Z " fill="#000000" transform="translate(900,240)"/>
<path d="M0 0 C6.6 0 13.2 0 20 0 C20 6.6 20 13.2 20 20 C26.6 20 33.2 20 40 20 C40 13.4 40 6.8 40 0 C53.2 0 66.4 0 80 0 C80 6.6 80 13.2 80 20 C86.6 20 93.2 20 100 20 C100 46.4 100 72.8 100 100 C86.8 100 73.6 100 60 100 C60 106.6 60 113.2 60 120 C46.8 120 33.6 120 20 120 C20 146.4 20 172.8 20 200 C13.4 200 6.8 200 0 200 C0 206.6 0 213.2 0 220 C-6.6 220 -13.2 220 -20 220 C-20 160.6 -20 101.2 -20 40 C-26.6 40 -33.2 40 -40 40 C-40 33.4 -40 26.8 -40 20 C-26.8 20 -13.6 20 0 20 C0 13.4 0 6.8 0 0 Z " fill="#000000" transform="translate(430,980)"/>
<path d="M0 0 C6.6 0 13.2 0 20 0 C20 13.2 20 26.4 20 40 C33.2 40 46.4 40 60 40 C60 46.6 60 53.2 60 60 C73.2 60 86.4 60 100 60 C100 66.6 100 73.2 100 80 C106.6 80 113.2 80 120 80 C120 99.8 120 119.6 120 140 C113.4 140 106.8 140 100 140 C100 146.6 100 153.2 100 160 C93.4 160 86.8 160 80 160 C80 166.6 80 173.2 80 180 C53.6 180 27.2 180 0 180 C0 173.4 0 166.8 0 160 C-6.6 160 -13.2 160 -20 160 C-20 140.2 -20 120.4 -20 100 C-13.4 100 -6.8 100 0 100 C0 93.4 0 86.8 0 80 C6.6 80 13.2 80 20 80 C20 73.4 20 66.8 20 60 C13.4 60 6.8 60 0 60 C0 53.4 0 46.8 0 40 C-6.6 40 -13.2 40 -20 40 C-20 33.4 -20 26.8 -20 20 C-13.4 20 -6.8 20 0 20 C0 13.4 0 6.8 0 0 Z " fill="#000000" transform="translate(890,1000)"/>
<path d="M0 0 C6.6 0 13.2 0 20 0 C20 13.2 20 26.4 20 40 C33.2 40 46.4 40 60 40 C60 46.6 60 53.2 60 60 C73.2 60 86.4 60 100 60 C100 66.6 100 73.2 100 80 C106.6 80 113.2 80 120 80 C120 99.8 120 119.6 120 140 C113.4 140 106.8 140 100 140 C100 146.6 100 153.2 100 160 C93.4 160 86.8 160 80 160 C80 166.6 80 173.2 80 180 C53.6 180 27.2 180 0 180 C0 173.4 0 166.8 0 160 C-6.6 160 -13.2 160 -20 160 C-20 140.2 -20 120.4 -20 100 C-13.4 100 -6.8 100 0 100 C0 93.4 0 86.8 0 80 C6.6 80 13.2 80 20 80 C20 73.4 20 66.8 20 60 C13.4 60 6.8 60 0 60 C0 53.4 0 46.8 0 40 C-6.6 40 -13.2 40 -20 40 C-20 33.4 -20 26.8 -20 20 C-13.4 20 -6.8 20 0 20 C0 13.4 0 6.8 0 0 Z " fill="#000000" transform="translate(1100,260)"/>
<path d="M0 0 C6.6 0 13.2 0 20 0 C20 13.2 20 26.4 20 40 C13.4 40 6.8 40 0 40 C0 73 0 106 0 140 C6.6 140 13.2 140 20 140 C20 146.6 20 153.2 20 160 C33.2 160 46.4 160 60 160 C60 146.8 60 133.6 60 120 C46.8 120 33.6 120 20 120 C20 113.4 20 106.8 20 100 C33.2 100 46.4 100 60 100 C60 93.4 60 86.8 60 80 C73.2 80 86.4 80 100 80 C100 126.2 100 172.4 100 220 C93.4 220 86.8 220 80 220 C80 226.6 80 233.2 80 240 C53.6 240 27.2 240 0 240 C0 233.4 0 226.8 0 220 C-6.6 220 -13.2 220 -20 220 C-20 213.4 -20 206.8 -20 200 C-6.8 200 6.4 200 20 200 C20 206.6 20 213.2 20 220 C33.2 220 46.4 220 60 220 C60 206.8 60 193.6 60 180 C40.2 180 20.4 180 0 180 C0 173.4 0 166.8 0 160 C-6.6 160 -13.2 160 -20 160 C-20 153.4 -20 146.8 -20 140 C-26.6 140 -33.2 140 -40 140 C-40 107 -40 74 -40 40 C-33.4 40 -26.8 40 -20 40 C-20 33.4 -20 26.8 -20 20 C-13.4 20 -6.8 20 0 20 C0 13.4 0 6.8 0 0 Z " fill="#000000" transform="translate(320,260)"/>
<path d="M0 0 C49.5 0 99 0 150 0 C150 9.9 150 19.8 150 30 C110.4 30 70.8 30 30 30 C30 39.9 30 49.8 30 60 C49.8 60 69.6 60 90 60 C90 69.9 90 79.8 90 90 C70.2 90 50.4 90 30 90 C30 119.7 30 149.4 30 180 C69.6 180 109.2 180 150 180 C150 189.9 150 199.8 150 210 C100.5 210 51 210 0 210 C0 140.7 0 71.4 0 0 Z " fill="#000000" transform="translate(580,630)"/>
<path d="M0 0 C6.6 0 13.2 0 20 0 C20 6.6 20 13.2 20 20 C26.6 20 33.2 20 40 20 C40 33.2 40 46.4 40 60 C46.6 60 53.2 60 60 60 C60 53.4 60 46.8 60 40 C66.6 40 73.2 40 80 40 C80 26.8 80 13.6 80 0 C93.2 0 106.4 0 120 0 C120 13.2 120 26.4 120 40 C113.4 40 106.8 40 100 40 C100 46.6 100 53.2 100 60 C93.4 60 86.8 60 80 60 C80 86.4 80 112.8 80 140 C86.6 140 93.2 140 100 140 C100 146.6 100 153.2 100 160 C106.6 160 113.2 160 120 160 C120 173.2 120 186.4 120 200 C106.8 200 93.6 200 80 200 C80 193.4 80 186.8 80 180 C73.4 180 66.8 180 60 180 C60 166.8 60 153.6 60 140 C53.4 140 46.8 140 40 140 C40 146.6 40 153.2 40 160 C33.4 160 26.8 160 20 160 C20 173.2 20 186.4 20 200 C6.8 200 -6.4 200 -20 200 C-20 186.8 -20 173.6 -20 160 C-13.4 160 -6.8 160 0 160 C0 153.4 0 146.8 0 140 C6.6 140 13.2 140 20 140 C20 113.6 20 87.2 20 60 C13.4 60 6.8 60 0 60 C0 53.4 0 46.8 0 40 C-6.6 40 -13.2 40 -20 40 C-20 33.4 -20 26.8 -20 20 C-13.4 20 -6.8 20 0 20 C0 13.4 0 6.8 0 0 Z " fill="#000000" transform="translate(250,980)"/>
<path d="M0 0 C13.2 0 26.4 0 40 0 C40 6.6 40 13.2 40 20 C46.6 20 53.2 20 60 20 C60 33.2 60 46.4 60 60 C53.4 60 46.8 60 40 60 C40 53.4 40 46.8 40 40 C33.4 40 26.8 40 20 40 C20 46.6 20 53.2 20 60 C13.4 60 6.8 60 0 60 C0 66.6 0 73.2 0 80 C13.2 80 26.4 80 40 80 C40 86.6 40 93.2 40 100 C33.4 100 26.8 100 20 100 C20 106.6 20 113.2 20 120 C13.4 120 6.8 120 0 120 C0 133.2 0 146.4 0 160 C6.6 160 13.2 160 20 160 C20 166.6 20 173.2 20 180 C26.6 180 33.2 180 40 180 C40 173.4 40 166.8 40 160 C46.6 160 53.2 160 60 160 C60 153.4 60 146.8 60 140 C66.6 140 73.2 140 80 140 C80 153.2 80 166.4 80 180 C73.4 180 66.8 180 60 180 C60 186.6 60 193.2 60 200 C40.2 200 20.4 200 0 200 C0 193.4 0 186.8 0 180 C-6.6 180 -13.2 180 -20 180 C-20 186.6 -20 193.2 -20 200 C-26.6 200 -33.2 200 -40 200 C-40 173.6 -40 147.2 -40 120 C-46.6 120 -53.2 120 -60 120 C-60 113.4 -60 106.8 -60 100 C-53.4 100 -46.8 100 -40 100 C-40 80.2 -40 60.4 -40 40 C-46.6 40 -53.2 40 -60 40 C-60 33.4 -60 26.8 -60 20 C-40.2 20 -20.4 20 0 20 C0 13.4 0 6.8 0 0 Z " fill="#000000" transform="translate(130,980)"/>
<path d="M0 0 C39.6 0 79.2 0 120 0 C120 9.9 120 19.8 120 30 C90.3 30 60.6 30 30 30 C30 39.9 30 49.8 30 60 C59.7 60 89.4 60 120 60 C120 69.9 120 79.8 120 90 C90.3 90 60.6 90 30 90 C30 119.7 30 149.4 30 180 C59.7 180 89.4 180 120 180 C120 189.9 120 199.8 120 210 C80.4 210 40.8 210 0 210 C0 140.7 0 71.4 0 0 Z " fill="#000000" transform="translate(400,630)"/>
<path d="M0 0 C9.9 0 19.8 0 30 0 C30 9.9 30 19.8 30 30 C59.7 30 89.4 30 120 30 C120 20.1 120 10.2 120 0 C129.9 0 139.8 0 150 0 C150 59.4 150 118.8 150 180 C140.1 180 130.2 180 120 180 C120 140.4 120 100.8 120 60 C90.3 60 60.6 60 30 60 C30 99.6 30 139.2 30 180 C20.1 180 10.2 180 0 180 C0 120.6 0 61.2 0 0 Z " fill="#000000" transform="translate(940,660)"/>
<path d="M0 0 C49.5 0 99 0 150 0 C150 9.9 150 19.8 150 30 C130.2 30 110.4 30 90 30 C90 89.4 90 148.8 90 210 C80.1 210 70.2 210 60 210 C60 150.6 60 91.2 60 30 C40.2 30 20.4 30 0 30 C0 20.1 0 10.2 0 0 Z " fill="#000000" transform="translate(760,630)"/>
<path d="M0 0 C6.6 0 13.2 0 20 0 C20 66 20 132 20 200 C13.4 200 6.8 200 0 200 C0 206.6 0 213.2 0 220 C-6.6 220 -13.2 220 -20 220 C-20 160.6 -20 101.2 -20 40 C-26.6 40 -33.2 40 -40 40 C-40 33.4 -40 26.8 -40 20 C-26.8 20 -13.6 20 0 20 C0 13.4 0 6.8 0 0 Z " fill="#000000" transform="translate(1070,980)"/>
<path d="M0 0 C6.6 0 13.2 0 20 0 C20 66 20 132 20 200 C13.4 200 6.8 200 0 200 C0 206.6 0 213.2 0 220 C-6.6 220 -13.2 220 -20 220 C-20 160.6 -20 101.2 -20 40 C-26.6 40 -33.2 40 -40 40 C-40 33.4 -40 26.8 -40 20 C-26.8 20 -13.6 20 0 20 C0 13.4 0 6.8 0 0 Z " fill="#000000" transform="translate(660,240)"/>
<path d="M0 0 C6.6 0 13.2 0 20 0 C20 13.2 20 26.4 20 40 C13.4 40 6.8 40 0 40 C0 73 0 106 0 140 C6.6 140 13.2 140 20 140 C20 146.6 20 153.2 20 160 C33.2 160 46.4 160 60 160 C60 166.6 60 173.2 60 180 C40.2 180 20.4 180 0 180 C0 173.4 0 166.8 0 160 C-6.6 160 -13.2 160 -20 160 C-20 153.4 -20 146.8 -20 140 C-26.6 140 -33.2 140 -40 140 C-40 107 -40 74 -40 40 C-33.4 40 -26.8 40 -20 40 C-20 33.4 -20 26.8 -20 20 C-13.4 20 -6.8 20 0 20 C0 13.4 0 6.8 0 0 Z " fill="#000000" transform="translate(1150,1000)"/>
<path d="M0 0 C19.8 0 39.6 0 60 0 C60 6.6 60 13.2 60 20 C66.6 20 73.2 20 80 20 C80 26.6 80 33.2 80 40 C86.6 40 93.2 40 100 40 C100 73 100 106 100 140 C93.4 140 86.8 140 80 140 C80 146.6 80 153.2 80 160 C73.4 160 66.8 160 60 160 C60 166.6 60 173.2 60 180 C53.4 180 46.8 180 40 180 C40 166.8 40 153.6 40 140 C46.6 140 53.2 140 60 140 C60 107 60 74 60 40 C53.4 40 46.8 40 40 40 C40 33.4 40 26.8 40 20 C26.8 20 13.6 20 0 20 C0 13.4 0 6.8 0 0 Z " fill="#000000" transform="translate(1170,980)"/>
<path d="M0 0 C13.2 0 26.4 0 40 0 C40 6.6 40 13.2 40 20 C46.6 20 53.2 20 60 20 C60 46.4 60 72.8 60 100 C46.8 100 33.6 100 20 100 C20 73.6 20 47.2 20 20 C13.4 20 6.8 20 0 20 C0 13.4 0 6.8 0 0 Z " fill="#000000" transform="translate(470,980)"/>
<path d="M0 0 C13.2 0 26.4 0 40 0 C40 19.8 40 39.6 40 60 C33.4 60 26.8 60 20 60 C20 66.6 20 73.2 20 80 C6.8 80 -6.4 80 -20 80 C-20 73.4 -20 66.8 -20 60 C-13.4 60 -6.8 60 0 60 C0 53.4 0 46.8 0 40 C6.6 40 13.2 40 20 40 C20 33.4 20 26.8 20 20 C13.4 20 6.8 20 0 20 C0 13.4 0 6.8 0 0 Z " fill="#5FCDE4" transform="translate(930,1080)"/>
<path d="M0 0 C6.6 0 13.2 0 20 0 C20 26.4 20 52.8 20 80 C6.8 80 -6.4 80 -20 80 C-20 60.2 -20 40.4 -20 20 C-13.4 20 -6.8 20 0 20 C0 13.4 0 6.8 0 0 Z " fill="#5FCDE4" transform="translate(470,1000)"/>
<path d="M0 0 C13.2 0 26.4 0 40 0 C40 19.8 40 39.6 40 60 C33.4 60 26.8 60 20 60 C20 66.6 20 73.2 20 80 C6.8 80 -6.4 80 -20 80 C-20 73.4 -20 66.8 -20 60 C-13.4 60 -6.8 60 0 60 C0 53.4 0 46.8 0 40 C6.6 40 13.2 40 20 40 C20 33.4 20 26.8 20 20 C13.4 20 6.8 20 0 20 C0 13.4 0 6.8 0 0 Z " fill="#5FCDE4" transform="translate(1140,340)"/>
<path d="M0 0 C9.9 0 19.8 0 30 0 C30 29.7 30 59.4 30 90 C20.1 90 10.2 90 0 90 C0 60.3 0 30.6 0 0 Z " fill="#000000" transform="translate(520,720)"/>
<path d="M0 0 C29.7 0 59.4 0 90 0 C90 9.9 90 19.8 90 30 C60.3 30 30.6 30 0 30 C0 20.1 0 10.2 0 0 Z " fill="#000000" transform="translate(970,630)"/>
<path d="M0 0 C6.6 0 13.2 0 20 0 C20 19.8 20 39.6 20 60 C13.4 60 6.8 60 0 60 C0 66.6 0 73.2 0 80 C-6.6 80 -13.2 80 -20 80 C-20 60.2 -20 40.4 -20 20 C-13.4 20 -6.8 20 0 20 C0 13.4 0 6.8 0 0 Z " fill="#5FCDE4" transform="translate(520,260)"/>
<path d="M0 0 C13.2 0 26.4 0 40 0 C40 19.8 40 39.6 40 60 C26.8 60 13.6 60 0 60 C0 40.2 0 20.4 0 0 Z " fill="#000000" transform="translate(1020,240)"/>
<path d="M0 0 C19.8 0 39.6 0 60 0 C60 6.6 60 13.2 60 20 C66.6 20 73.2 20 80 20 C80 26.6 80 33.2 80 40 C66.8 40 53.6 40 40 40 C40 33.4 40 26.8 40 20 C26.8 20 13.6 20 0 20 C0 13.4 0 6.8 0 0 Z " fill="#000000" transform="translate(910,980)"/>
<path d="M0 0 C19.8 0 39.6 0 60 0 C60 6.6 60 13.2 60 20 C66.6 20 73.2 20 80 20 C80 26.6 80 33.2 80 40 C66.8 40 53.6 40 40 40 C40 33.4 40 26.8 40 20 C26.8 20 13.6 20 0 20 C0 13.4 0 6.8 0 0 Z " fill="#000000" transform="translate(1120,240)"/>
<path d="M0 0 C19.8 0 39.6 0 60 0 C60 13.2 60 26.4 60 40 C53.4 40 46.8 40 40 40 C40 33.4 40 26.8 40 20 C26.8 20 13.6 20 0 20 C0 13.4 0 6.8 0 0 Z " fill="#000000" transform="translate(340,240)"/>
<path d="M0 0 C9.9 0 19.8 0 30 0 C30 9.9 30 19.8 30 30 C20.1 30 10.2 30 0 30 C0 20.1 0 10.2 0 0 Z " fill="#000000" transform="translate(520,660)"/>
<path d="M0 0 C6.6 0 13.2 0 20 0 C20 13.2 20 26.4 20 40 C13.4 40 6.8 40 0 40 C0 26.8 0 13.6 0 0 Z " fill="#5FCDE4" transform="translate(630,1020)"/>
<path d="M0 0 C6.6 0 13.2 0 20 0 C20 13.2 20 26.4 20 40 C13.4 40 6.8 40 0 40 C0 26.8 0 13.6 0 0 Z " fill="#5FCDE4" transform="translate(780,280)"/>
<path d="M0 0 C6.6 0 13.2 0 20 0 C20 6.6 20 13.2 20 20 C13.4 20 6.8 20 0 20 C0 13.4 0 6.8 0 0 Z " fill="#000000" transform="translate(1370,1200)"/>
<path d="M0 0 C6.6 0 13.2 0 20 0 C20 6.6 20 13.2 20 20 C13.4 20 6.8 20 0 20 C0 13.4 0 6.8 0 0 Z " fill="#000000" transform="translate(790,1200)"/>
<path d="M0 0 C6.6 0 13.2 0 20 0 C20 6.6 20 13.2 20 20 C13.4 20 6.8 20 0 20 C0 13.4 0 6.8 0 0 Z " fill="#5FCDE4" transform="translate(890,1120)"/>
<path d="M0 0 C6.6 0 13.2 0 20 0 C20 6.6 20 13.2 20 20 C13.4 20 6.8 20 0 20 C0 13.4 0 6.8 0 0 Z " fill="#000000" transform="translate(940,460)"/>
<path d="M0 0 C6.6 0 13.2 0 20 0 C20 6.6 20 13.2 20 20 C13.4 20 6.8 20 0 20 C0 13.4 0 6.8 0 0 Z " fill="#5FCDE4" transform="translate(1100,380)"/>
</svg>
